<svg
  width="186"
  height="186"
  viewBox="0 0 186 186"
  fill="none"
  xmlns="http://www.w3.org/2000/svg">
  <path
    fill-rule="evenodd"
    clip-rule="evenodd"
    d="M93 17C134.946 17 169 51.0543 169 93C169 134.946 134.946 169 93 169C51.0543 169 17 134.946 17 93C17 51.0543 51.0543 17 93 17ZM109.194 118.333H76.7993C80.2573 133.913 85.9257 144.389 93 154.712C100.562 143.686 105.926 133.115 109.194 118.333ZM63.8667 118.333H34.9423C42.7703 136.225 58.401 149.823 77.724 154.535C71.0867 143.559 66.4317 131.367 63.8667 118.333ZM151.058 118.333H122.133C119.657 130.924 115.198 142.951 108.358 154.395C127.434 149.563 143.299 136.06 151.058 118.333ZM62.3593 80.3333H30.9333C29.2423 88.649 29.2423 97.3383 30.9333 105.667H62.0617C61.308 97.2497 61.422 88.744 62.3593 80.3333ZM110.879 80.3333H75.1147C74.0697 88.7313 73.943 97.256 74.779 105.667H111.215C112.057 97.256 111.918 88.7377 110.879 80.3333ZM155.067 80.3333H123.634C124.572 88.744 124.686 97.2497 123.938 105.667H155.067C156.713 97.5283 156.796 88.896 155.067 80.3333ZM78.0787 31.383C58.591 36.019 42.821 49.661 34.9423 67.6667H64.4113C67.1663 54.734 71.872 42.4283 78.0787 31.383ZM92.9937 31.079C86.0967 42.289 80.897 52.948 77.3947 67.6667H108.599C105.217 53.442 100.131 42.6627 92.9937 31.079ZM107.991 31.516C114.407 42.992 118.967 55.3293 121.582 67.6667H151.058C143.255 49.832 127.232 36.266 107.991 31.516Z"
    fill="white"
  />
</svg>