<svg
  width="186"
  height="186"
  viewBox="20 0 186 186"
  fill="none"
  xmlns="http://www.w3.org/2000/svg">
  <g id="Artboard">
    <path
      fillRule="evenodd"
      clipRule="evenodd"
      d="M36.1063 85.5248C71.8009 70.0232 95.5633 59.7227 107.495 54.7255C141.456 40.5496 148.595 38.102 153.185 38C154.204 38 156.448 38.204 157.978 39.4278C159.202 40.4476 159.508 41.7734 159.712 42.7933C159.916 43.8131 160.119 45.9548 159.916 47.5865C158.08 66.9636 150.125 113.978 146.046 135.599C144.312 144.778 140.946 147.837 137.683 148.143C130.544 148.755 125.139 143.452 118.306 138.965C107.495 131.928 101.478 127.542 90.974 120.607C78.8378 112.653 86.6906 108.267 93.6256 101.128C95.4613 99.2927 126.771 70.737 127.382 68.1874C127.484 67.8815 127.484 66.6577 126.771 66.0458C126.057 65.4338 125.037 65.6378 124.221 65.8418C123.099 66.0458 105.966 77.468 72.6168 100.007C67.7215 103.372 63.3362 105.004 59.3588 104.902C54.9735 104.8 46.6107 102.454 40.2877 100.415C32.6389 97.9669 26.5198 96.6411 27.0297 92.3578C27.3357 90.1141 30.3952 87.8705 36.1063 85.5248Z"
      fill="white"
    />
  </g>
</svg>