<svg
  width="512"
  height="512"
  viewBox="0 0 512 512"
  fill="none"
  xmlns="http://www.w3.org/2000/svg"
>
  <path
    d="M398.8 76.8H426.7V467H136.3C93.804 467 59.5 452.096 59.5 409.6V102.4C59.5 59.904 93.804 25.6 136.3 25.6H375.5V204.8V384H116.6C102.52 384 91 395.52 91 409.6C91 423.68 102.52 435.2 116.6 435.2H398.8V76.8Z"
    fill="white"
  />
  <path
    d="M194.62 287.849L130.173 223.682C129.801 223.312 129.506 222.872 129.305 222.388C129.104 221.903 129 221.384 129 220.859C129 220.335 129.104 219.815 129.305 219.331C129.506 218.846 129.801 218.406 130.173 218.036L146.443 201.732C147.997 200.176 150.51 200.176 152.065 201.732L194.494 243.949C196.048 245.505 198.579 245.487 200.134 243.931L293.885 149.183C295.44 147.609 297.971 147.609 299.544 149.165L315.832 165.469C317.386 167.025 317.386 169.54 315.85 171.097L213.71 274.259L213.728 274.277L200.26 287.831C198.706 289.387 196.175 289.387 194.62 287.849Z"
    fill="#387CF9"
    stroke="#387CF9"
    stroke-width="6"
    stroke-miterlimit="10"
  />
</svg>