<svg
  width="186"
  height="186"
  viewBox="0 0 186 186"
  fill="none"
  xmlns="http://www.w3.org/2000/svg">
  <path
    d="M145.064 44.7246C135.354 40.1816 124.972 36.88 114.118 35C112.785 37.4101 111.228 40.6517 110.154 43.2303C98.6156 41.4951 87.1834 41.4951 75.8572 43.2303C74.7837 40.6517 73.191 37.4101 71.846 35C60.98 36.88 50.586 40.1937 40.8762 44.7486C21.2915 74.3437 15.9824 103.204 18.637 131.654C31.6266 141.354 44.2151 147.247 56.5911 151.103C59.6468 146.897 62.3721 142.427 64.7199 137.715C60.2484 136.016 55.9658 133.919 51.9192 131.485C52.9928 130.69 54.0429 129.858 55.0574 129.003C79.7387 140.547 106.556 140.547 130.942 129.003C131.969 129.858 133.018 130.69 134.08 131.485C130.022 133.931 125.727 136.028 121.256 137.727C123.604 142.427 126.317 146.909 129.385 151.115C141.773 147.259 154.373 141.366 167.362 131.654C170.477 98.6728 162.042 70.0779 145.064 44.7246ZM68.0824 114.157C60.6733 114.157 54.5972 107.24 54.5972 98.8173C54.5972 90.3943 60.5435 83.4656 68.0824 83.4656C75.6214 83.4656 81.6972 90.3822 81.5675 98.8173C81.5792 107.24 75.6214 114.157 68.0824 114.157ZM117.917 114.157C110.508 114.157 104.432 107.24 104.432 98.8173C104.432 90.3943 110.378 83.4656 117.917 83.4656C125.456 83.4656 131.532 90.3822 131.402 98.8173C131.402 107.24 125.456 114.157 117.917 114.157Z"
    fill="white"
  />
</svg>