<svg
  width="512"
  height="512"
  viewBox="0 0 512 512"
  fill="none"
  xmlns="http://www.w3.org/2000/svg"
>
  <path
    d="M354.9 416.134V470H0V416.134C0 416.134 0 308.401 177.45 308.401C354.9 308.401 354.9 416.134 354.9 416.134ZM266.175 160.268C266.175 141.624 260.971 123.398 251.222 107.896C241.473 92.3942 227.616 80.3118 211.404 73.177C195.191 66.0422 177.352 64.1754 160.141 67.8127C142.93 71.45 127.12 80.428 114.712 93.6114C102.304 106.795 93.8533 123.591 90.4298 141.877C87.0064 160.163 88.7634 179.117 95.4788 196.342C102.194 213.567 113.566 228.289 128.157 238.647C142.748 249.005 159.902 254.534 177.45 254.534C200.981 254.534 223.549 244.602 240.188 226.924C256.827 209.246 266.175 185.269 266.175 160.268ZM353.379 308.401C368.963 321.214 381.715 337.5 390.737 356.113C399.759 374.726 404.832 395.213 405.6 416.134V470H507V416.134C507 416.134 507 318.366 353.379 308.401ZM329.55 66.0014C312.101 65.8982 295.036 71.4407 280.625 81.892C296.023 104.751 304.303 132.157 304.303 160.268C304.303 188.378 296.023 215.784 280.625 238.643C295.036 249.095 312.101 254.637 329.55 254.534C353.081 254.534 375.649 244.602 392.288 226.924C408.927 209.246 418.275 185.269 418.275 160.268C418.275 135.267 408.927 111.29 392.288 93.6114C375.649 75.933 353.081 66.0014 329.55 66.0014Z"
    fill="white"
  />
</svg>