<svg width="19" height="15" viewBox="0 0 19 15" fill="none" xmlns="http://www.w3.org/2000/svg">
<path d="M3.63236 0.193272C3.51791 0.0750621 3.36112 0.00580859 3.19557 0.000349029C3.03003 -0.00511053 2.86891 0.0536584 2.74672 0.164064C2.62454 0.27447 2.55101 0.42773 2.5419 0.591008C2.53279 0.754286 2.58881 0.914593 2.69797 1.03758L4.21833 2.68712C1.3439 4.43047 0.108607 7.11976 0.0531773 7.24484C0.0180963 7.32507 0 7.41153 0 7.49892C0 7.5863 0.0180963 7.67276 0.0531773 7.75299C0.0769329 7.80771 0.750009 9.27744 2.2387 10.755C4.22625 12.7094 6.73643 13.7492 9.5 13.7492C10.9198 13.7547 12.325 13.4672 13.6256 12.9049L15.3676 14.7967C15.427 14.8608 15.4991 14.9119 15.5796 14.9469C15.66 14.9819 15.7469 15 15.8348 15C15.9929 14.9985 16.1449 14.9401 16.2624 14.8358C16.3247 14.781 16.3752 14.7143 16.411 14.6399C16.4468 14.5655 16.4671 14.4847 16.4708 14.4024C16.4745 14.32 16.4615 14.2378 16.4325 14.1606C16.4035 14.0833 16.3591 14.0125 16.302 13.9524L3.63236 0.193272ZM7.37783 6.12691L10.6799 9.70742C10.3166 9.89812 9.91139 9.99747 9.5 9.99667C9.04331 9.9968 8.59508 9.87508 8.20271 9.64437C7.81033 9.41367 7.48841 9.08257 7.27097 8.68608C7.05354 8.28959 6.94868 7.84246 6.96749 7.39197C6.9863 6.94148 7.12808 6.50438 7.37783 6.12691ZM9.5 12.4983C7.06109 12.4983 4.931 11.6228 3.17308 9.89504C2.4448 9.1902 1.82816 8.38112 1.3439 7.49501C1.71607 6.80705 2.91177 4.87608 5.08937 3.63306L6.51471 5.18097C5.9653 5.87853 5.68285 6.74513 5.71713 7.62812C5.75141 8.5111 6.1002 9.35382 6.70208 10.0078C7.30395 10.6618 8.12029 11.0852 9.00729 11.2033C9.8943 11.3213 10.7951 11.1266 11.5509 10.6534L12.7149 11.9198C11.6888 12.3074 10.5987 12.5036 9.5 12.4983ZM18.9468 7.75299C18.9151 7.82335 18.1154 9.57452 16.302 11.1771C16.1858 11.2774 16.0367 11.3329 15.8823 11.3335C15.7935 11.3345 15.7056 11.3161 15.6248 11.2797C15.544 11.2432 15.4724 11.1895 15.4152 11.1224C15.3595 11.0613 15.3166 10.99 15.2889 10.9126C15.2611 10.8351 15.2491 10.753 15.2535 10.671C15.2579 10.589 15.2787 10.5086 15.3146 10.4345C15.3505 10.3604 15.4008 10.2939 15.4627 10.239C16.3477 9.45521 17.0896 8.52702 17.6561 7.49501C17.1705 6.60739 16.554 5.79592 15.8269 5.08715C14.069 3.36726 11.9389 2.49168 9.5 2.49168C8.98524 2.48963 8.47126 2.53148 7.9638 2.61676C7.79817 2.64174 7.62921 2.60174 7.49307 2.50531C7.35692 2.40889 7.2644 2.2637 7.2353 2.10079C7.22171 2.01968 7.22446 1.93672 7.24338 1.85666C7.2623 1.77659 7.29702 1.701 7.34556 1.6342C7.3941 1.5674 7.45551 1.5107 7.52627 1.46735C7.59702 1.424 7.67574 1.39485 7.75792 1.38156C8.33363 1.28687 8.91635 1.2398 9.5 1.24084C12.2636 1.24084 14.7737 2.2806 16.7613 4.23502C18.25 5.71257 18.9231 7.1823 18.9468 7.24484C18.9819 7.32507 19 7.41153 19 7.49892C19 7.5863 18.9819 7.67276 18.9468 7.75299ZM9.97511 5.04025C9.89296 5.02485 9.81469 4.99362 9.74476 4.94836C9.67483 4.9031 9.61462 4.84468 9.56756 4.77644C9.47252 4.63862 9.43682 4.46918 9.46832 4.30538C9.49983 4.14159 9.59595 3.99685 9.73554 3.90302C9.87513 3.80919 10.0468 3.77395 10.2127 3.80505C11.0204 3.96102 11.7557 4.37008 12.3092 4.97147C12.8627 5.57286 13.2049 6.33449 13.2851 7.14321C13.3005 7.30798 13.2492 7.47207 13.1423 7.59955C13.0354 7.72703 12.8818 7.80751 12.7149 7.82335H12.6516C12.4948 7.82396 12.3436 7.76645 12.2277 7.66222C12.1119 7.55798 12.0399 7.41461 12.026 7.26047C11.9714 6.7219 11.7423 6.21505 11.3729 5.81511C11.0035 5.41518 10.5133 5.14345 9.97511 5.04025Z" fill="#212225"/>
</svg>
