<svg
  id="gear"
  className="gear"
  width="186"
  height="186"
  viewBox="0 0 186 186"
  fill="none"
  xmlns="http://www.w3.org/2000/svg">
  <path
    d="M93 120.125C85.806 120.125 78.9066 117.267 73.8197 112.18C68.7328 107.093 65.875 100.194 65.875 93C65.875 85.806 68.7328 78.9067 73.8197 73.8197C78.9066 68.7328 85.806 65.875 93 65.875C100.194 65.875 107.093 68.7328 112.18 73.8197C117.267 78.9067 120.125 85.806 120.125 93C120.125 100.194 117.267 107.093 112.18 112.18C107.093 117.267 100.194 120.125 93 120.125ZM150.582 100.518C150.892 98.0375 151.125 95.5575 151.125 93C151.125 90.4425 150.892 87.885 150.582 85.25L166.935 72.6175C168.407 71.455 168.795 69.3625 167.865 67.6575L152.365 40.8425C151.435 39.1375 149.342 38.44 147.637 39.1375L128.34 46.8875C124.31 43.865 120.125 41.23 115.242 39.2925L112.375 18.755C112.218 17.8422 111.742 17.0146 111.033 16.4188C110.324 15.823 109.426 15.4975 108.5 15.5H77.5C75.5625 15.5 73.935 16.895 73.625 18.755L70.7575 39.2925C65.875 41.23 61.69 43.865 57.66 46.8875L38.3625 39.1375C36.6575 38.44 34.565 39.1375 33.635 40.8425L18.135 67.6575C17.1275 69.3625 17.5925 71.455 19.065 72.6175L35.4175 85.25C35.1075 87.885 34.875 90.4425 34.875 93C34.875 95.5575 35.1075 98.0375 35.4175 100.518L19.065 113.383C17.5925 114.545 17.1275 116.638 18.135 118.343L33.635 145.158C34.565 146.863 36.6575 147.483 38.3625 146.863L57.66 139.035C61.69 142.135 65.875 144.77 70.7575 146.708L73.625 167.245C73.935 169.105 75.5625 170.5 77.5 170.5H108.5C110.437 170.5 112.065 169.105 112.375 167.245L115.242 146.708C120.125 144.693 124.31 142.135 128.34 139.035L147.637 146.863C149.342 147.483 151.435 146.863 152.365 145.158L167.865 118.343C168.795 116.638 168.407 114.545 166.935 113.383L150.582 100.518Z"
    fill="white"
  />
</svg>