<svg class="password-visible" width="19" height="13" viewBox="0 0 19 13" fill="none" xmlns="http://www.w3.org/2000/svg">
    <path d="M18.9573 6.3C18.9252 6.23333 18.2571 4.69167 16.76 3.15C15.2629 1.60833 12.9932 0 9.5 0C6.00682 0 3.62437 1.70833 2.23997 3.15C0.85558 4.59167 0.0748454 6.23333 0.0426501 6.3C0.014555 6.36266 0 6.43092 0 6.5C0 6.56908 0.014555 6.63734 0.0426501 6.7C0.0748454 6.76667 0.742896 8.30833 2.23997 9.85C3.73705 11.3917 6.00682 13 9.5 13C12.9932 13 15.3756 11.2917 16.76 9.85C18.1444 8.40833 18.9252 6.76667 18.9573 6.7C18.9854 6.63734 19 6.56908 19 6.5C19 6.43092 18.9854 6.36266 18.9573 6.3ZM9.5 12C6.97267 12 4.7673 11.05 2.94827 9.175C2.18124 8.38814 1.53278 7.4864 1.0246 6.5C1.53278 5.5136 2.18124 4.61186 2.94827 3.825C4.7673 1.95 6.97267 1 9.5 1C12.0273 1 14.2327 1.95 16.0517 3.825C16.8188 4.61186 17.4672 5.5136 17.9754 6.5C17.4603 7.51667 14.8927 12 9.5 12ZM9.5 2.66667C8.76772 2.66667 8.05189 2.89149 7.44303 3.3127C6.83416 3.73391 6.35961 4.3326 6.07938 5.03305C5.79915 5.7335 5.72583 6.50425 5.86869 7.24785C6.01155 7.99144 6.36417 8.67448 6.88197 9.21058C7.39977 9.74668 8.05948 10.1118 8.77769 10.2597C9.49589 10.4076 10.2403 10.3317 10.9169 10.0415C11.5934 9.7514 12.1716 9.26007 12.5785 8.62969C12.9853 7.9993 13.2025 7.25816 13.2025 6.5C13.2025 5.48334 12.8124 4.50831 12.118 3.78942C11.4237 3.07053 10.482 2.66667 9.5 2.66667ZM9.5 9.33333C8.95875 9.33333 8.42966 9.16716 7.97963 8.85583C7.5296 8.5445 7.17884 8.10199 6.97172 7.58427C6.76459 7.06655 6.7104 6.49686 6.81599 5.94724C6.92158 5.39763 7.18222 4.89278 7.56494 4.49653C7.94765 4.10028 8.43527 3.83043 8.96612 3.72111C9.49696 3.61178 10.0472 3.66789 10.5472 3.88234C11.0473 4.09679 11.4747 4.45995 11.7754 4.92588C12.0761 5.39182 12.2366 5.93962 12.2366 6.5C12.2345 7.25077 11.9455 7.97016 11.4327 8.50104C10.92 9.03192 10.2251 9.33113 9.5 9.33333Z" fill="#212225"/>
</svg>