<svg
  width="186"
  height="186"
  viewBox="0 0 186 186"
  fill="none"
  xmlns="http://www.w3.org/2000/svg">
  <path
    d="M171.573 52.9573C169.687 45.889 164.131 40.3224 157.073 38.4333C144.285 35 93 35 93 35C93 35 41.7158 35 28.9266 38.4333C21.8695 40.3224 16.3114 45.889 14.4265 52.9573C11 65.7689 11 92.5 11 92.5C11 92.5 11 119.23 14.4265 132.043C16.3114 139.112 21.8695 144.677 28.9259 146.568C41.7151 150 92.9993 150 92.9993 150C92.9993 150 144.284 150 157.073 146.568C164.13 144.678 169.687 139.112 171.573 132.043C175 119.23 175 92.5007 175 92.5007C175 92.5007 175 65.7696 171.573 52.958"
    fill="white"
  />
  <path d="M71 117L114 92.5014L71 68V117Z" fill="#212225" />
</svg>